<svg xmlns="http://www.w3.org/2000/svg" viewBox="0 0 423.9 145.28"><defs><style>.cls-1{fill:#6a8d92;}.cls-2{fill:none;}.cls-3{fill:#ef476f;}</style></defs><title>logo-grey-reddot</title><g id="Layer_2" data-name="Layer 2"><g id="Layer_4" data-name="Layer 4"><path class="cls-1" d="M386.74,100.35c0,26.67-15.77,32.2-37.07,32.2H271c5.57-6.31,7.67-15.61,7.89-29.18h56.24c8.05,0,13.42-1.85,13.42-8.89,0-8.22-5.37-10.07-13.42-10.07h-57.4c-2.61-14.51-9.89-21.91-25.58-25.59a129.17,129.17,0,0,0-21-2.74c-9.87-.61-21.65-.76-35.64-.72-46.73.2-52-.19-52-12.56,0-7.66,6.68-11,16.49-11h48.3c20,0,21.2,4.31,21.2,14.72h38.92V59.25h65.92c6.88,0,10.9-2.52,10.9-9.39,0-7-4-9.56-10.9-9.56H273c-.11-12-1.59-22.12-9.21-29.19h74.5c29.69,0,44.12,8.05,44.12,31.87,0,20.8-7.55,24.83-17.95,27.84v.51C380.7,73.34,386.74,82.06,386.74,100.35Z"/><path class="cls-1" d="M234.11,101.5c0,3.83-1.15,6.45-3,8.23-3.51,3.32-9.61,3.74-15.62,3.74h-53.4c-12.56,0-18.65-1.17-18.84-16.29H99.63V107c0,9.64,1.56,17,4.91,22.56-8.33,3.31-19.25,4.34-32.58,4.34H47.64C12.75,133.9,0,123.16,0,94.81V80.22H36.23V91c0,9.06,4.7,12.75,16.27,12.75H67.26c12.25,0,19.46-1.51,19.46-12.75V48.34H50.55V11.11H110c-9.42,8.25-10.12,20.48-10.12,34.44,0,22.31,3,33.58,22.31,38.81.59.16,1.2.31,1.82.46,10.86,2.61,26.48,3.53,48.9,3.53,38.29,0,52.84.36,58.22,4.52C233.59,94.81,234.11,97.57,234.11,101.5Z"/><path class="cls-2" d="M278.87,100.71c0,.9,0,1.79,0,2.66-.22,13.57-2.32,22.87-7.89,29.18C261.78,143,243.19,145.28,208,145.28H155.19c-27.24,0-43.28-3.52-50.65-15.72-3.35-5.56-4.91-12.92-4.91-22.56V97.18h43.59c.19,15.12,6.28,16.29,18.84,16.29h53.4c6,0,12.11-.42,15.62-3.74,1.88-1.78,3-4.4,3-8.23s-.52-6.69-3-8.63c-5.38-4.16-19.93-4.52-58.22-4.52-22.42,0-38-.92-48.9-3.53-.62-.15-1.23-.3-1.82-.46-19.27-5.23-22.31-16.5-22.31-38.81,0-14,.7-26.19,10.12-34.44C117.89,4.15,132,0,157.15,0H218c24.5,0,38.17,4.06,45.75,11.11s9.1,17.17,9.21,29.19c0,.57,0,1.14,0,1.71v4.52H229.4c0-10.41-1.18-14.72-21.2-14.72H159.9c-9.81,0-16.49,3.33-16.49,11,0,12.37,5.3,12.76,52,12.56,14,0,25.77.11,35.64.72a129.17,129.17,0,0,1,21,2.74c15.69,3.68,23,11.08,25.58,25.59A94.15,94.15,0,0,1,278.87,100.71Z"/><circle class="cls-3" cx="406.36" cy="115.01" r="17.54"/></g></g></svg>